<svg width="31" height="31" viewBox="0 0 31 31" fill="none" xmlns="http://www.w3.org/2000/svg">
<path fill-rule="evenodd" clip-rule="evenodd" d="M11.1166 17.5455L15.5031 20.5125L19.7315 17.6267L29.2097 26.8773C28.9597 26.9581 28.6951 26.999 28.4161 27H2.58385C2.24285 27 1.91735 26.9341 1.6182 26.816L11.1166 17.5455ZM31 9.9432V24.4439C31 24.8227 30.9163 25.1815 30.7675 25.505L21.4768 16.4369L31 9.9432ZM0 10.0245L9.3651 16.3602L0.1643 25.3425C0.0565173 25.0549 0.000897438 24.7507 0 24.4439L0 10.0245ZM28.4161 4C29.8421 4 31 5.14387 31 6.55607V7.4546L15.4969 18.0269L0 7.542V6.55607C0 5.1454 1.1563 4 2.58385 4H28.4161Z" fill="#797979"/>
</svg>
