<svg width="31" height="31" viewBox="0 0 31 31" fill="none" xmlns="http://www.w3.org/2000/svg">
<rect width="31" height="31" fill="#F5F5F5"/>
<rect width="1512" height="982" transform="translate(-1324 -49)" fill="#1B1B1B"/>
<path d="M28.7077 0.000216735H2.29225C1.99532 -0.00388237 1.70048 0.0501997 1.42457 0.159374C1.14867 0.268549 0.897103 0.430678 0.684242 0.636501C0.47138 0.842325 0.301395 1.08781 0.183991 1.35894C0.0665882 1.63007 0.00406741 1.92154 0 2.21669V28.7833C0.00406741 29.0785 0.0665882 29.3699 0.183991 29.6411C0.301395 29.9122 0.47138 30.1577 0.684242 30.3635C0.897103 30.5693 1.14867 30.7314 1.42457 30.8406C1.70048 30.9498 1.99532 31.0039 2.29225 30.9998H28.7077C29.0047 31.0039 29.2995 30.9498 29.5754 30.8406C29.8513 30.7314 30.1029 30.5693 30.3158 30.3635C30.5286 30.1577 30.6986 29.9122 30.816 29.6411C30.9334 29.3699 30.9959 29.0785 31 28.7833V2.21669C30.9959 1.92154 30.9334 1.63007 30.816 1.35894C30.6986 1.08781 30.5286 0.842325 30.3158 0.636501C30.1029 0.430678 29.8513 0.268549 29.5754 0.159374C29.2995 0.0501997 29.0047 -0.00388237 28.7077 0.000216735ZM9.40292 25.9469H4.72485V11.997H9.40292V25.9469ZM7.06388 10.0441C6.41872 10.0441 5.79998 9.78933 5.34378 9.33587C4.88758 8.88241 4.63129 8.26739 4.63129 7.62611C4.63129 6.98483 4.88758 6.36981 5.34378 5.91635C5.79998 5.46289 6.41872 5.20814 7.06388 5.20814C7.40647 5.16953 7.75339 5.20327 8.08195 5.30716C8.4105 5.41106 8.71327 5.58276 8.97044 5.81103C9.22761 6.03929 9.43337 6.31898 9.57425 6.63177C9.71513 6.94456 9.78795 7.2834 9.78795 7.62611C9.78795 7.96882 9.71513 8.30766 9.57425 8.62045C9.43337 8.93324 9.22761 9.21293 8.97044 9.44119C8.71327 9.66946 8.4105 9.84116 8.08195 9.94506C7.75339 10.049 7.40647 10.0827 7.06388 10.0441ZM26.2752 25.9469H21.5971V18.4605C21.5971 16.585 20.9266 15.3605 19.2269 15.3605C18.7008 15.3643 18.1886 15.5283 17.7593 15.8304C17.3299 16.1325 17.004 16.5581 16.8255 17.05C16.7034 17.4143 16.6505 17.798 16.6695 18.1815V25.9314H11.9914V11.9815H16.6695V13.95C17.0945 13.217 17.7126 12.6132 18.4572 12.2035C19.2019 11.7938 20.0448 11.5938 20.8954 11.6251C24.0141 11.6251 26.2752 13.6245 26.2752 17.918V25.9469Z" fill="#797979"/>
</svg>
