<svg width="31" height="31" viewBox="0 0 31 31" fill="none" xmlns="http://www.w3.org/2000/svg">
<path fill-rule="evenodd" clip-rule="evenodd" d="M18.8162 0.474613C18.8162 0.369745 18.7745 0.269173 18.7004 0.19502C18.6262 0.120867 18.5257 0.0792084 18.4208 0.0792084H7.34945C6.19591 0.0792084 5.08961 0.537453 4.27393 1.35313C3.45824 2.16881 3 3.27512 3 4.42866V26.5713C3 27.7249 3.45824 28.8312 4.27393 29.6469C5.08961 30.4625 6.19591 30.9208 7.34945 30.9208H23.1657C24.3192 30.9208 25.4255 30.4625 26.2412 29.6469C27.0569 28.8312 27.5151 27.7249 27.5151 26.5713V10.9876C27.5151 10.8828 27.4734 10.7822 27.3993 10.708C27.3251 10.6339 27.2246 10.5922 27.1197 10.5922H20.0024C19.6878 10.5922 19.3861 10.4673 19.1636 10.2448C18.9412 10.0223 18.8162 9.72062 18.8162 9.40602V0.474613ZM20.0024 15.8954C20.317 15.8954 20.6187 16.0204 20.8412 16.2428C21.0637 16.4653 21.1886 16.767 21.1886 17.0816C21.1886 17.3962 21.0637 17.6979 20.8412 17.9204C20.6187 18.1429 20.317 18.2678 20.0024 18.2678H10.5127C10.1981 18.2678 9.89637 18.1429 9.67391 17.9204C9.45146 17.6979 9.32648 17.3962 9.32648 17.0816C9.32648 16.767 9.45146 16.4653 9.67391 16.2428C9.89637 16.0204 10.1981 15.8954 10.5127 15.8954H20.0024ZM20.0024 22.2219C20.317 22.2219 20.6187 22.3469 20.8412 22.5693C21.0637 22.7918 21.1886 23.0935 21.1886 23.4081C21.1886 23.7227 21.0637 24.0244 20.8412 24.2469C20.6187 24.4693 20.317 24.5943 20.0024 24.5943H10.5127C10.1981 24.5943 9.89637 24.4693 9.67391 24.2469C9.45146 24.0244 9.32648 23.7227 9.32648 23.4081C9.32648 23.0935 9.45146 22.7918 9.67391 22.5693C9.89637 22.3469 10.1981 22.2219 10.5127 22.2219H20.0024Z" fill="#797979"/>
<path d="M21.1886 0.987098C21.1886 0.69608 21.4939 0.511031 21.72 0.692917C21.9119 0.847916 22.0822 1.02822 22.2309 1.23383L26.9963 7.87189C27.1039 8.02372 26.9868 8.21984 26.8002 8.21984H21.584C21.4791 8.21984 21.3786 8.17819 21.3044 8.10403C21.2303 8.02988 21.1886 7.92931 21.1886 7.82444V0.987098Z" fill="#797979"/>
</svg>
